<?xml version="1.0" encoding="UTF-8" standalone="no"?>
<!-- Generator: Adobe Illustrator 16.0.0, SVG Export Plug-In . SVG Version: 6.00 Build 0)  -->

<svg
   xmlns:dc="http://purl.org/dc/elements/1.1/"
   xmlns:cc="http://creativecommons.org/ns#"
   xmlns:rdf="http://www.w3.org/1999/02/22-rdf-syntax-ns#"
   xmlns:svg="http://www.w3.org/2000/svg"
   xmlns="http://www.w3.org/2000/svg"
   xmlns:sodipodi="http://sodipodi.sourceforge.net/DTD/sodipodi-0.dtd"
   xmlns:inkscape="http://www.inkscape.org/namespaces/inkscape"
   version="1.1"
   id="Calque_1"
   x="0px"
   y="0px"
   width="150px"
   height="100px"
   viewBox="0 0 552 415"
   enable-background="new 0 0 552 415"
   xml:space="preserve"
   inkscape:version="0.48.4 r9939"
   sodipodi:docname="boom.svg"><title
   id="title3000">boom</title><metadata
   id="metadata23"><rdf:RDF><cc:Work
       rdf:about=""><dc:format>image/svg+xml</dc:format><dc:type
         rdf:resource="http://purl.org/dc/dcmitype/StillImage" /><dc:title>boom</dc:title><dc:date>08/03/2013</dc:date><dc:creator><cc:Agent><dc:title>edited by Paul Shermasn</dc:title></cc:Agent></dc:creator><dc:rights><cc:Agent><dc:title>PD</dc:title></cc:Agent></dc:rights><dc:publisher><cc:Agent><dc:title>WPClipart</dc:title></cc:Agent></dc:publisher><dc:subject><rdf:Bag><rdf:li>boom</rdf:li><rdf:li>sound</rdf:li><rdf:li>effect</rdf:li><rdf:li>text</rdf:li></rdf:Bag></dc:subject><cc:license
         rdf:resource="http://creativecommons.org/licenses/publicdomain/" /></cc:Work><cc:License
       rdf:about="http://creativecommons.org/licenses/publicdomain/"><cc:permits
         rdf:resource="http://creativecommons.org/ns#Reproduction" /><cc:permits
         rdf:resource="http://creativecommons.org/ns#Distribution" /><cc:permits
         rdf:resource="http://creativecommons.org/ns#DerivativeWorks" /></cc:License></rdf:RDF></metadata><defs
   id="defs21" /><sodipodi:namedview
   pagecolor="#ffffff"
   bordercolor="#666666"
   borderopacity="1"
   objecttolerance="10"
   gridtolerance="10"
   guidetolerance="10"
   inkscape:pageopacity="0"
   inkscape:pageshadow="2"
   inkscape:window-width="810"
   inkscape:window-height="817"
   id="namedview19"
   showgrid="false"
   inkscape:zoom="0.5686747"
   inkscape:cx="279.51695"
   inkscape:cy="207.5"
   inkscape:window-x="403"
   inkscape:window-y="34"
   inkscape:window-maximized="0"
   inkscape:current-layer="Calque_1" />
<g
   id="g3">
	<path
   fill="#F39200"
   d="M547.038,148.64c-8.413,1.379-16.822,2.794-25.235,4.181c-6.705,1.106-13.41,2.213-20.118,3.31l0.373,0.771   c1.343,2.78,2.645,5.55,3.905,8.306c13.853-5.18,27.69-10.401,41.543-15.583c0.515-0.193,1.013-0.433,1.517-0.651   C548.269,148.626,547.639,148.54,547.038,148.64z"
   id="path5" />
	<path
   fill="#F39200"
   d="M79.657,193.178c-9.387-0.21-18.772-0.453-28.158-0.677c-15.833-0.375-31.667-0.745-47.5-1.117   c0,0.114,0,0.227,0,0.341c0.209,0.086,0.411,0.203,0.628,0.255c22.482,5.236,44.997,10.339,67.439,15.744   c4.176,1.006,8.35,2.018,12.521,3.043c-1.183-5.614-2.403-11.484-3.652-17.559C80.51,193.199,80.083,193.187,79.657,193.178z"
   id="path7" />
	<path
   fill="#F39200"
   d="M152.948,125.828c6.859,9.121,13.191,18.648,19.604,28.098c1.532,2.258,2.524,4.912,3.549,7.471   c0.661,1.653,0.036,2.593-1.728,2.945c-1.15,0.231-2.363,0.32-3.534,0.247c-5.123-0.324-9.982-1.791-14.765-3.56   c-3.579-1.327-7.162-2.635-10.744-3.953c-0.169,0.205-0.341,0.411-0.51,0.615c0.609,0.392,1.272,0.718,1.818,1.184   c4.558,3.897,9.203,7.702,13.588,11.786c1.993,1.855,3.565,4.202,5.124,6.468c0.359,0.522,0.517,0.943,0.485,1.282   c4.547,3.215,8.245,6.773,11.026,10.622c3.921,5.43,5.909,11.159,5.909,17.031c0,2.958-0.674,5.711-2.002,8.184   c-0.676,1.265-1.407,2.462-2.181,3.579c1.825,0.423,3.615,0.971,5.363,1.641c0.479-6.366,1.845-12.371,4.083-17.916   c2.934-7.274,7.365-13.79,13.168-19.367c5.78-5.558,12.783-9.927,20.813-12.987c3.69-1.408,7.778-2.598,12.146-3.536   c4.281-0.919,8.762-1.386,13.316-1.386l0.568,0.001c4.813,0.041,9.74,0.737,14.644,2.07c5.074,1.385,9.986,3.777,14.602,7.112   c4.558,3.295,8.918,7.7,12.966,13.09c3.193,4.256,6.09,9.345,8.643,15.177c2.788-5.812,6.12-11.007,9.953-15.515   c5.535-6.517,11.859-11.627,18.795-15.185c6.977-3.577,14.591-5.604,22.635-6.022c7.986-0.42,16.155,0.86,24.231,3.801   c0.704,0.257,1.419,0.542,2.134,0.83c9.575-9.774,21.107-16.524,31.864-24.307c-3.325,0.812-6.548,1.808-9.779,2.773   c-20.551,6.137-41.115,12.248-62.224,16.218c-3.901,0.733-7.968,0.944-11.942,0.832c-3.36-0.093-5.383-2.712-5.284-6.088   c0.047-1.614,0.425-3.237,0.817-4.814c0.573-2.298,1.294-4.559,1.953-6.836c-0.14-0.077-0.279-0.154-0.418-0.231   c-1.688,1.962-3.402,3.901-5.058,5.889c-3.281,3.941-6.742,7.67-11.72,9.49c-3.78,1.38-6.611,0.374-9.28-3.144   c-2.308-3.039-2.314-5.713,0.031-9.013c1.935-2.722,3.913-5.409,5.856-8.122c0.179-0.249,0.251-0.573,0.372-0.862   c-0.796,0.113-1.301,0.435-1.807,0.755c-4.683,2.953-9.287,6.048-14.089,8.793c-1.898,1.084-4.203,1.75-6.391,1.977   c-4.382,0.455-7.847-1.759-10.8-4.751c-9.175-9.297-15.821-19.987-18.104-33.077c-0.498-2.851-1.262-5.654-1.903-8.479   c-0.63,4.414-0.819,8.788-1.138,13.152c-0.391,5.351-0.791,10.706-1.393,16.037c-0.231,2.042-1.033,4.024-1.575,6.033   c-0.204-0.005-0.408-0.008-0.613-0.014c-0.84-1.308-1.682-2.616-2.524-3.924c-0.854-1.327-1.709-2.654-2.564-3.982   c-0.151,0.062-0.303,0.119-0.455,0.18c0.04,0.879,0.068,1.758,0.123,2.637c0.166,2.707,0.459,5.415,0.48,8.124   c0.02,2.722-1.241,4.051-3.85,3.717c-2.536-0.325-5.151-0.892-7.465-1.941c-8.2-3.722-15.495-8.921-22.227-14.837   c-16.067-14.118-32.005-28.385-48.006-42.583c-27.892-24.754-55.795-49.493-83.679-74.255c-3.622-3.216-7.162-6.523-10.74-9.787   c-0.34,0-0.68,0-1.02,0c1.83,2.57,3.596,5.189,5.497,7.703C96.052,50.537,124.593,88.113,152.948,125.828z"
   id="path9" />
	<path
   fill="#F39200"
   d="M501.242,363.116c-28.026-20.445-56.001-40.958-82.329-63.6c-2.129-1.83-4.237-3.678-6.329-5.546   l-3.686,0.634l-0.425-4.364l-0.056-0.573c-0.913-9.377-2.207-19.168-3.852-29.156c-1.504,2.936-3.092,5.623-4.757,8.046   c-1.808,2.63-3.701,5.031-5.664,7.199c-2.126,2.349-4.334,4.424-6.612,6.196c-4.402,3.428-8.984,5.978-13.615,7.578   c-4.565,1.574-9.218,2.479-13.83,2.689c-4.53,0.203-8.945-0.086-13.133-0.868c-4.083-0.762-7.931-1.794-11.435-3.069   c-16.53-6.023-28.665-14.556-36.166-25.414c-2.162,3.372-4.669,6.419-7.474,9.08c-3.288,3.116-6.819,5.787-10.495,7.938   c-3.608,2.107-7.192,3.844-10.658,5.164c-10.758,4.1-20.867,6.18-30.044,6.18c-7.03,0-13.679-1.217-19.761-3.615   c-8.243-3.248-15.352-8.714-21.198-16.292c-2.956,3.703-6.559,6.92-10.756,9.599c-1.355,0.865-2.766,1.677-4.223,2.439   c-0.052,0.254-0.103,0.508-0.158,0.76c-2.938,13.446-8.193,26.032-14.342,38.273c-13.339,26.552-26.71,53.085-40.052,79.635   c-1.038,2.066-1.941,4.201-2.906,6.305c0.711-0.315,1.141-0.762,1.544-1.232c5.825-6.783,11.624-13.59,17.476-20.35   c17.898-20.678,36.355-40.826,56.678-59.183c8.746-7.902,17.801-15.402,27.905-21.54c5.623-3.415,11.371-6.49,18.018-7.513   c6.174-0.951,10.286,1.628,11.687,7.684c2.235,9.666,1.941,19.414,0.824,29.182c-0.129,1.135-0.168,2.28-0.249,3.423   c2.412-2.31,4.425-4.729,6.467-7.124c4.191-4.912,8.464-9.748,13.715-13.589c1.004-0.732,2.151-1.275,3.438-2.024   c2.246,8.743,1.411,17.286,1.739,25.893c0.41-0.234,0.543-0.265,0.593-0.346c0.329-0.526,0.652-1.056,0.954-1.596   c3.473-6.224,6.926-12.454,11.54-17.945c3.16-3.762,6.637-7.122,11.117-9.28c4.984-2.399,9.801-1.478,13.219,2.882   c1.757,2.241,3.286,4.77,4.396,7.391c2.597,6.128,5.125,12.31,7.235,18.617c5.135,15.355,10.014,30.799,15.003,46.203   c0.221,0.679,0.521,1.335,0.784,2.001c0.141-0.03,0.281-0.064,0.422-0.098c0.041-0.418,0.111-0.837,0.118-1.259   c0.09-6.562,0.132-13.127,0.263-19.688c0.244-12.228,1.188-24.397,3.509-36.421c1.086-5.618,2.663-11.113,6.003-15.889   c3.24-4.633,7.741-6.576,13.35-5.997c6.426,0.667,12.451,2.785,18.283,5.383c35.798,15.939,71.559,31.954,107.333,47.943   c0.642,0.286,1.296,0.547,1.944,0.823C502.268,363.943,501.773,363.504,501.242,363.116z"
   id="path11" />
	<path
   fill="#F39200"
   d="M380.926,171.501c1.681,0.792,3.378,1.644,5.088,2.582c3.22,1.77,6.332,3.867,9.283,6.252l14.761-10.847   c-1.924,0.206-3.849,0.404-5.776,0.578C396.516,170.764,388.716,171.103,380.926,171.501z"
   id="path13" />
	<path
   fill="#F39200"
   d="M457.285,182.904c-0.461-6.15-1.04-12.571-1.733-19.192l-0.039-0.375   c-8.205,1.236-16.41,2.461-24.634,3.563c-3.64,0.487-7.284,0.968-10.929,1.428l15.999,22.071   C443.051,187.87,450.166,185.383,457.285,182.904z"
   id="path15" />
</g>
<path
   fill="#E30613"
   d="M517.856,224.963c-2.729-10.271-6.105-20.811-10.033-31.325c-3.585-9.6-7.839-19.603-12.659-29.777  l-29.979,3.434c0.807,8.197,1.436,16.07,1.876,23.46c0.521,8.774,0.835,16.624,0.932,23.332c0.041,7.893-0.031,15.228-0.213,21.843  l-0.372,13.576l-52.365-72.236L394.727,192.2l-2.794-2.577c-0.123-0.114-0.244-0.23-0.365-0.347  c-0.078-0.075-0.154-0.153-0.235-0.223c-3.067-2.696-6.349-5.012-9.758-6.886c-3.508-1.924-6.945-3.505-10.216-4.695  c-6.908-2.518-13.834-3.614-20.594-3.258c-6.735,0.351-13.097,2.039-18.905,5.019c-5.854,3.003-11.229,7.36-15.979,12.952  c-4.791,5.634-8.709,12.577-11.646,20.638c-0.371,1.019-0.734,2.08-1.079,3.156l-4.456,13.876l-4.337-13.915  c-0.648-2.079-1.369-4.16-2.142-6.186c-2.684-7.042-5.826-12.986-9.339-17.669c-3.49-4.649-7.188-8.401-10.99-11.15  c-3.715-2.683-7.628-4.598-11.625-5.689c-4.136-1.124-8.275-1.712-12.298-1.746l-0.491-0.001c-3.904,0-7.733,0.397-11.381,1.181  c-3.911,0.838-7.542,1.894-10.796,3.136c-6.868,2.616-12.825,6.323-17.708,11.019c-4.859,4.669-8.563,10.108-11.006,16.167  c-2.458,6.096-3.671,12.908-3.604,20.252c0.002,0.247,0.014,0.497,0.024,0.747l0.02,0.519l0.277,8.276l-7.181-4.123  c-1.7-0.978-3.538-1.848-5.458-2.588c-3.646-1.401-7.552-2.113-11.607-2.113h-11.86l8.746-8.01c1.398-1.281,2.77-2.649,4.08-4.073  c0.938-1.16,1.819-2.505,2.617-3.998c0.612-1.14,0.909-2.39,0.909-3.828c0-3.948-1.362-7.752-4.162-11.63  c-2.963-4.101-7.372-7.87-13.104-11.204c-5.902-3.433-13.301-6.23-21.995-8.315c-8.25-1.973-17.696-3.032-28.1-3.152l-16.569,17.881  c2.267,11.059,4.447,21.457,6.486,30.941c0.872,4.242,1.812,8.649,2.804,13.145c0.966,4.386,1.867,8.444,2.708,12.184  c0.832,3.723,1.608,7.088,2.308,10.006c0.671,2.813,1.227,5.04,1.609,6.443c0.931,3.309,2.632,6.101,5.194,8.503  c2.758,2.592,6.089,4.743,9.908,6.395c3.98,1.724,8.331,3.022,12.937,3.858c4.687,0.851,9.33,1.281,13.797,1.281  c7.066,0,13.857-0.801,20.186-2.379c6.193-1.547,11.73-3.86,16.454-6.87c4.543-2.9,8.191-6.571,10.839-10.908  c0.264-0.432,0.5-0.874,0.737-1.317l3.796-7.152l4.214,6.915c5.423,8.9,12.392,15.073,20.709,18.349  c5.003,1.974,10.513,2.974,16.379,2.974c8.05,0,17.054-1.877,26.762-5.576c2.993-1.141,6.117-2.657,9.286-4.507  c3.065-1.794,6.028-4.037,8.803-6.668c2.709-2.57,5.085-5.604,7.063-9.015c0.828-1.434,1.583-3.028,2.242-4.737l3.966-10.294  l4.539,10.053c0.338,0.748,0.669,1.428,1.011,2.08c5.899,11.287,17.445,20.124,34.321,26.273c3.028,1.102,6.383,1.999,9.97,2.669  c3.502,0.652,7.205,0.897,11.023,0.721c3.729-0.169,7.511-0.908,11.24-2.194c3.669-1.266,7.356-3.333,10.959-6.137  c3.637-2.83,7.114-6.645,10.341-11.342c3.271-4.761,6.246-10.788,8.842-17.911c0.313-0.856,0.605-1.697,0.884-2.529l5.506-16.47  l3.391,17.032c0.846,4.251,1.606,8.34,2.261,12.151c1.653,9.62,2.993,19.096,3.994,28.234l23.024-3.954  c-0.089-1.425-0.214-2.978-0.374-4.646c-0.24-2.873-0.745-6.551-1.506-10.989c-0.756-4.402-2.005-9.786-3.709-15.998l-7.161-26.098  l32.452,46.896l18.261-6.665l3.79-51.645l7.14,24.828c1.31,4.554,2.472,8.792,3.454,12.6c1.016,3.956,1.859,7.871,2.507,11.643  c0.644,3.75,1.162,7.752,1.54,11.899c0.253,2.84,0.488,5.872,0.703,9.049l31.461,1.819c-1.175-8.917-2.52-17.805-4.011-26.488  C522.875,245.724,520.587,235.25,517.856,224.963z M116.627,188.477h5.76c2.883,0,6.024,0.628,9.604,1.921  c3.352,1.214,6.562,2.801,9.544,4.718c3.05,1.959,5.721,4.225,7.936,6.734c2.693,3.054,4.059,6.36,4.059,9.827  c0,2.268-0.778,4.506-2.312,6.652c-1.285,1.801-3.055,3.46-5.259,4.932c-2.136,1.425-4.685,2.568-7.574,3.402  c-2.848,0.827-5.952,1.247-9.218,1.247h-3.691L116.627,188.477z M167.654,262.012c-3.612,2.17-7.962,3.271-12.926,3.271  c-4.645,0-8.448-0.479-11.629-1.466c-3.356-1.038-6.131-2.551-8.245-4.496c-2.206-2.026-3.778-4.498-4.666-7.342  c-0.782-2.495-1.178-5.173-1.178-7.961v-3.04l2.794-1.198c1.055-0.452,2.47-0.951,4.33-1.523l0.148-0.043  c1.627-0.443,3.689-0.831,6.306-1.183c2.601-0.35,5.772-0.526,9.429-0.526c4.082,0,7.377,0.375,10.078,1.146  c2.886,0.829,5.153,1.922,6.938,3.349c1.896,1.524,3.267,3.269,4.081,5.195c0.757,1.812,1.138,3.68,1.138,5.571  C174.251,254.634,173.106,258.743,167.654,262.012z M273.571,240.414c-0.383,3.818-1.701,7.329-3.917,10.44  c-2.283,3.206-5.889,5.766-10.717,7.606c-2.938,1.119-5.825,1.686-8.586,1.686c-1.852,0-3.676-0.256-5.421-0.758  c-4.024-1.151-7.658-3.08-10.794-5.731c-2.987-2.522-5.567-5.453-7.663-8.709c-2.018-3.125-3.52-5.966-4.461-8.437  c-1.638-4.296-2.735-8.478-3.257-12.43c-0.541-4.06-0.506-7.857,0.103-11.285c0.641-3.601,1.877-6.746,3.672-9.35  c1.96-2.841,4.501-4.87,7.551-6.029c4.669-1.78,9.211-2.4,13.455-1.84c4.153,0.553,7.979,1.938,11.377,4.119  c3.321,2.132,6.23,4.94,8.649,8.344c2.308,3.249,4.194,6.78,5.611,10.498c1.345,3.531,2.49,7.113,3.404,10.646  C273.589,233.086,273.923,236.863,273.571,240.414z M380.507,225.366c-0.383,3.964-1.268,7.87-2.632,11.612  c-1.288,3.538-2.766,6.994-4.394,10.276c-1.787,3.613-4.009,6.69-6.599,9.14c-2.786,2.635-6.082,4.429-9.795,5.33  c-1.317,0.321-2.717,0.483-4.16,0.483c-2.736,0-5.737-0.587-8.919-1.746c-4.947-1.805-8.715-4.652-11.199-8.466  c-2.29-3.512-3.773-7.349-4.409-11.399c-0.608-3.864-0.64-7.769-0.093-11.6c0.53-3.741,1.233-6.785,2.15-9.298  c1.575-4.327,3.483-8.208,5.672-11.533c2.247-3.421,4.758-6.27,7.462-8.463c2.852-2.31,5.847-3.88,8.903-4.668  c3.307-0.855,6.602-0.725,9.646,0.385c4.703,1.715,8.532,4.209,11.378,7.413c2.779,3.141,4.765,6.693,5.907,10.563  C380.542,217.188,380.905,221.214,380.507,225.366z"
   id="path17" />
</svg>
